<svg width="516" height="149" viewBox="0 0 516 149" fill="none" xmlns="http://www.w3.org/2000/svg">
<mask id="path-1-inside-1_154_2800" fill="white">
<path fill-rule="evenodd" clip-rule="evenodd" d="M164 17C164 7.61116 156.389 0 147 0H20C8.95431 0 0 8.9543 0 20V34V41V129C0 140.046 8.95432 149 20 149H496C507.046 149 516 140.046 516 129V54C516 42.9543 507.046 34 496 34H181C171.611 34 164 26.3888 164 17Z"/>
</mask>
<path fill-rule="evenodd" clip-rule="evenodd" d="M164 17C164 7.61116 156.389 0 147 0H20C8.95431 0 0 8.9543 0 20V34V41V129C0 140.046 8.95432 149 20 149H496C507.046 149 516 140.046 516 129V54C516 42.9543 507.046 34 496 34H181C171.611 34 164 26.3888 164 17Z" fill="white"/>
<path d="M20 1H147V-1H20V1ZM1 34V20H-1V34H1ZM1 41V34H-1V41H1ZM1 129V41H-1V129H1ZM496 148H20V150H496V148ZM515 54V129H517V54H515ZM181 35H496V33H181V35ZM181 33C172.163 33 165 25.8366 165 17H163C163 26.9411 171.059 35 181 35V33ZM-1 129C-1 140.598 8.40203 150 20 150V148C9.5066 148 1 139.493 1 129H-1ZM517 54C517 42.402 507.598 33 496 33V35C506.493 35 515 43.5066 515 54H517ZM147 1C155.837 1 163 8.16344 163 17H165C165 7.05887 156.941 -1 147 -1V1ZM496 150C507.598 150 517 140.598 517 129H515C515 139.493 506.493 148 496 148V150ZM20 -1C8.40202 -1 -1 8.40202 -1 20H1C1 9.50659 9.50659 1 20 1V-1Z" fill="#FAFAFA" mask="url(#path-1-inside-1_154_2800)"/>
</svg>
